<svg version="1.1" viewBox="0.0 0.0 500.0 500.0" fill="none" stroke="none" stroke-linecap="square" stroke-miterlimit="10" xmlns:xlink="http://www.w3.org/1999/xlink" xmlns="http://www.w3.org/2000/svg"><clipPath id="g26675558ab7_0_49.0"><path d="m0 0l500.0 0l0 500.0l-500.0 0l0 -500.0z" clip-rule="nonzero"/></clipPath><g clip-path="url(#g26675558ab7_0_49.0)"><path fill="#000000" fill-opacity="0.0" d="m0 0l500.0 0l0 500.0l-500.0 0z" fill-rule="evenodd"/><path fill="#000000" fill-opacity="0.0" d="m24.944881 226.67717l450.11023 0l0 106.92912l-450.11023 0z" fill-rule="evenodd"/><path fill="#4054ec" d="m55.756176 304.61047q-4.859375 0 -8.765625 -1.65625q-3.890625 -1.671875 -6.15625 -4.796875q-2.265625 -3.140625 -2.328125 -7.40625l9.984375 0q0.203125 2.859375 2.03125 4.53125q1.84375 1.65625 5.046875 1.65625q3.265625 0 5.125 -1.5625q1.875 -1.5625 1.875 -4.09375q0 -2.078125 -1.28125 -3.40625q-1.265625 -1.328125 -3.171875 -2.09375q-1.890625 -0.765625 -5.21875 -1.703125q-4.53125 -1.328125 -7.375 -2.625q-2.828125 -1.3125 -4.859375 -3.9375q-2.03125 -2.640625 -2.03125 -7.03125q0 -4.140625 2.0625 -7.203125q2.078125 -3.0625 5.796875 -4.6875q3.734375 -1.640625 8.546875 -1.640625q7.1875 0 11.687504 3.5q4.5 3.5 4.96875 9.765625l-10.265629 0q-0.125 -2.40625 -2.03125 -3.96875q-1.90625 -1.5625 -5.03125 -1.5625q-2.734375 0 -4.375 1.40625q-1.625 1.390625 -1.625 4.046875q0 1.875 1.234375 3.109375q1.234375 1.234375 3.0625 2.0q1.828125 0.765625 5.171875 1.765625q4.53125 1.328125 7.390629 2.671875q2.875 1.328125 4.9375 4.0q2.0625 2.65625 2.0625 6.984375q0 3.734375 -1.9375 6.9375q-1.921875 3.203125 -5.65625 5.109375q-3.7343788 1.890625 -8.875004 1.890625zm59.3906 -37.390625l0 36.921875l-9.390625 0l0 -4.671875q-1.796875 2.40625 -4.703125 3.78125q-2.890625 1.359375 -6.296875 1.359375q-4.328125 0 -7.671875 -1.828125q-3.328125 -1.84375 -5.234375 -5.40625q-1.890625 -3.5625 -1.890625 -8.5l0 -21.65625l9.328125 0l0 20.328125q0 4.390625 2.203125 6.765625q2.203125 2.359375 6.0 2.359375q3.859375 0 6.0625 -2.359375q2.203125 -2.375 2.203125 -6.765625l0 -20.328125l9.390625 0zm18.54422 5.734375q1.796875 -2.9375 4.6875 -4.59375q2.90625 -1.671875 6.640625 -1.671875l0 9.796875l-2.46875 0q-4.40625 0 -6.640625 2.0625q-2.21875 2.0625 -2.21875 7.203125l0 18.390625l-9.34375 0l0 -36.921875l9.34375 0l0 5.734375zm32.99167 22.59375l9.328125 -28.328125l9.9375 0l-13.671875 36.921875l-11.328125 0l-13.59375 -36.921875l10.0 0l9.328125 28.328125zm58.84903 -10.671875q0 2.0 -0.265625 3.59375l-26.984375 0q0.328125 4.0 2.796875 6.28125q2.46875 2.265625 6.0625 2.265625q5.203125 0 7.390625 -4.46875l10.078125 0q-1.609375 5.328125 -6.140625 8.765625q-4.53125 3.421875 -11.125 3.421875q-5.34375 0 -9.578125 -2.359375q-4.21875 -2.359375 -6.59375 -6.6875q-2.359375 -4.34375 -2.359375 -10.015625q0 -5.734375 2.328125 -10.0625q2.328125 -4.328125 6.53125 -6.65625q4.203125 -2.34375 9.671875 -2.34375q5.265625 0 9.421875 2.265625q4.171875 2.265625 6.46875 6.4375q2.296875 4.171875 2.296875 9.5625zm-9.65625 -2.671875q-0.0625 -3.59375 -2.609375 -5.75q-2.53125 -2.171875 -6.1875 -2.171875q-3.46875 0 -5.84375 2.109375q-2.359375 2.09375 -2.890625 5.8125l17.53125 0zm51.78322 -14.984375l-22.859375 54.390625l-9.9375 0l8.0 -18.40625l-14.796875 -35.984375l10.46875 0l9.53125 25.796875l9.671875 -25.796875l9.921875 0zm21.061462 37.390625q-4.859375 0 -8.765625 -1.65625q-3.890625 -1.671875 -6.15625 -4.796875q-2.265625 -3.140625 -2.328125 -7.40625l9.984375 0q0.203125 2.859375 2.03125 4.53125q1.84375 1.65625 5.046875 1.65625q3.265625 0 5.125 -1.5625q1.875 -1.5625 1.875 -4.09375q0 -2.078125 -1.28125 -3.40625q-1.265625 -1.328125 -3.171875 -2.09375q-1.890625 -0.765625 -5.21875 -1.703125q-4.53125 -1.328125 -7.375 -2.625q-2.828125 -1.3125 -4.859375 -3.9375q-2.03125 -2.640625 -2.03125 -7.03125q0 -4.140625 2.0625 -7.203125q2.078125 -3.0625 5.796875 -4.6875q3.734375 -1.640625 8.546875 -1.640625q7.1875 0 11.6875 3.5q4.5 3.5 4.96875 9.765625l-10.265625 0q-0.125 -2.40625 -2.03125 -3.96875q-1.90625 -1.5625 -5.03125 -1.5625q-2.734375 0 -4.375 1.40625q-1.625 1.390625 -1.625 4.046875q0 1.875 1.234375 3.109375q1.234375 1.234375 3.0625 2.0q1.828125 0.765625 5.171875 1.765625q4.53125 1.328125 7.390625 2.671875q2.875 1.328125 4.9375 4.0q2.0625 2.65625 2.0625 6.984375q0 3.734375 -1.9375 6.9375q-1.921875 3.203125 -5.65625 5.109375q-3.734375 1.890625 -8.875 1.890625zm33.87497 -32.0625q1.796875 -2.53125 4.953125 -4.234375q3.171875 -1.703125 7.234375 -1.703125q4.734375 0 8.5625 2.34375q3.84375 2.328125 6.078125 6.625q2.234375 4.296875 2.234375 9.96875q0 5.65625 -2.234375 10.03125q-2.234375 4.359375 -6.078125 6.765625q-3.828125 2.390625 -8.5625 2.390625q-4.0625 0 -7.171875 -1.65625q-3.09375 -1.671875 -5.015625 -4.203125l0 22.859375l-9.34375 0l0 -54.515625l9.34375 0l0 5.328125zm19.53125 13.0q0 -3.34375 -1.375 -5.765625q-1.359375 -2.4375 -3.59375 -3.703125q-2.234375 -1.265625 -4.84375 -1.265625q-2.53125 0 -4.765625 1.296875q-2.21875 1.296875 -3.59375 3.765625q-1.359375 2.46875 -1.359375 5.796875q0 3.34375 1.359375 5.8125q1.375 2.453125 3.59375 3.765625q2.234375 1.296875 4.765625 1.296875q2.609375 0 4.84375 -1.328125q2.234375 -1.34375 3.59375 -3.8125q1.375 -2.46875 1.375 -5.859375zm13.927368 0q0 -5.609375 2.234375 -9.9375q2.234375 -4.328125 6.0625 -6.65625q3.828125 -2.34375 8.5625 -2.34375q4.140625 0 7.234375 1.671875q3.09375 1.671875 4.96875 4.203125l0 -5.265625l9.390625 0l0 36.921875l-9.390625 0l0 -5.40625q-1.796875 2.609375 -4.96875 4.3125q-3.171875 1.6875 -7.296875 1.6875q-4.671875 0 -8.5 -2.390625q-3.828125 -2.40625 -6.0625 -6.765625q-2.234375 -4.375 -2.234375 -10.03125zm29.0625 0.125q0 -3.390625 -1.34375 -5.828125q-1.328125 -2.4375 -3.59375 -3.734375q-2.265625 -1.296875 -4.859375 -1.296875q-2.609375 0 -4.8125 1.265625q-2.1875 1.265625 -3.5625 3.703125q-1.359375 2.421875 -1.359375 5.765625q0 3.328125 1.359375 5.828125q1.375 2.5 3.609375 3.84375q2.234375 1.328125 4.765625 1.328125q2.59375 0 4.859375 -1.296875q2.265625 -1.3125 3.59375 -3.734375q1.34375 -2.4375 1.34375 -5.84375zm27.864868 -12.71875q1.796875 -2.9375 4.6875 -4.59375q2.90625 -1.671875 6.640625 -1.671875l0 9.796875l-2.46875 0q-4.40625 0 -6.640625 2.0625q-2.21875 2.0625 -2.21875 7.203125l0 18.390625l-9.34375 0l0 -36.921875l9.34375 0l0 5.734375zm39.46045 31.1875l-12.53125 -15.734375l0 15.734375l-9.34375 0l0 -49.32811l9.34375 0l0 28.062485l12.390625 -15.65625l12.125 0l-16.25 18.53125l16.390625 18.390625l-12.125 0z" fill-rule="nonzero"/><path fill="#000000" fill-opacity="0.0" d="m69.149605 226.67717c0 -16.64682 2.2888184E-4 -30.141739 5.0354004E-4 -30.141739l180.84988 0c2.746582E-4 0 5.0354004E-4 -13.494904 5.0354004E-4 -30.141724l0 0c0 16.64682 2.2888184E-4 30.141724 5.0354004E-4 30.141724l180.8494 0l0 0c1.2207031E-4 0 2.4414062E-4 3.175644 3.3569336E-4 8.828308c9.1552734E-5 5.6526794 1.5258789E-4 13.319336 1.5258789E-4 21.31343z" fill-rule="evenodd"/><path fill="#000000" fill-opacity="0.0" d="m69.149605 226.67717c0 -16.64682 2.2888184E-4 -30.141739 5.0354004E-4 -30.141739l180.84988 0c2.746582E-4 0 5.0354004E-4 -13.494904 5.0354004E-4 -30.141724l0 0c0 16.64682 2.2888184E-4 30.141724 5.0354004E-4 30.141724l180.8494 0l0 0c1.2207031E-4 0 2.4414062E-4 3.175644 3.3569336E-4 8.828308c9.1552734E-5 5.6526794 1.5258789E-4 13.319336 1.5258789E-4 21.31343" fill-rule="evenodd"/><path stroke="#4054ec" stroke-width="8.0" stroke-linejoin="round" stroke-linecap="butt" d="m69.149605 226.67717c0 -16.64682 2.2888184E-4 -30.141739 5.0354004E-4 -30.141739l180.84988 0c2.746582E-4 0 5.0354004E-4 -13.494904 5.0354004E-4 -30.141724l0 0c0 16.64682 2.2888184E-4 30.141724 5.0354004E-4 30.141724l180.8494 0l0 0c1.2207031E-4 0 2.4414062E-4 3.175644 3.3569336E-4 8.828308c9.1552734E-5 5.6526794 1.5258789E-4 13.319336 1.5258789E-4 21.31343" fill-rule="evenodd"/><path fill="#000000" fill-opacity="0.0" d="m443.55905 235.82939l39.496063 0l0 38.771652l-39.496063 0z" fill-rule="evenodd"/><path fill="#4054ec" d="m459.13522 255.88147l0 -5.421875l-2.0625 0l0 -0.9375l5.203125 0l0 0.9375l-2.078125 0l0 5.421875l-1.0625 0zm3.84375 0l0 -6.359375l1.5625 0l1.609375 5.078125l1.5625 -5.078125l1.53125 0l0 6.359375l-0.96875 0l0 -5.34375l-1.640625 5.34375l-0.96875 0l-1.703125 -5.421875l0 5.421875l-0.984375 0z" fill-rule="nonzero"/></g></svg>