<svg version="1.1" viewBox="0.0 0.0 1000.0 500.0" fill="none" stroke="none" stroke-linecap="square" stroke-miterlimit="10" xmlns:xlink="http://www.w3.org/1999/xlink" xmlns="http://www.w3.org/2000/svg"><clipPath id="g26676b8dd7b_0_16.0"><path d="m0 0l1000.0 0l0 500.0l-1000.0 0l0 -500.0z" clip-rule="nonzero"/></clipPath><g clip-path="url(#g26676b8dd7b_0_16.0)"><path fill="#000000" fill-opacity="0.0" d="m0 0l1000.0 0l0 500.0l-1000.0 0z" fill-rule="evenodd"/><path fill="#000000" fill-opacity="0.0" d="m47.624672 149.16536l908.5039 0l0 201.6693l-908.5039 0z" fill-rule="evenodd"/><path fill="#ffffff" d="m113.35468 298.9375q-9.734375 0 -17.53125 -3.328125q-7.796875 -3.34375 -12.328125 -9.609375q-4.53125 -6.265625 -4.671875 -14.796875l20.0 0q0.40625 5.734375 4.0625 9.0625q3.671875 3.328125 10.078125 3.328125q6.53125 0 10.265625 -3.125q3.734375 -3.140625 3.734375 -8.203125q0 -4.125 -2.546875 -6.796875q-2.53125 -2.671875 -6.328125 -4.203125q-3.796875 -1.53125 -10.46875 -3.390625q-9.0625 -2.671875 -14.734375 -5.265625q-5.65625 -2.609375 -9.734375 -7.875q-4.0625 -5.265625 -4.0625 -14.0625q0 -8.265625 4.125 -14.390625q4.140625 -6.140625 11.609375 -9.40625q7.46875 -3.265625 17.0625 -3.265625q14.40625 0 23.406242 7.0q9.0 7.0 9.9375 19.53125l-20.531242 0q-0.28125 -4.796875 -4.078125 -7.9375q-3.796875 -3.140625 -10.0625 -3.140625q-5.46875 0 -8.734375 2.8125q-3.265625 2.796875 -3.265625 8.125q0 3.734375 2.46875 6.203125q2.46875 2.46875 6.125 4.0q3.671875 1.53125 10.34375 3.53125q9.0625 2.671875 14.796867 5.34375q5.734375 2.65625 9.859375 8.0q4.140625 5.328125 4.140625 13.984375q0 7.46875 -3.875 13.875q-3.859375 6.390625 -11.328125 10.203125q-7.4687424 3.796875 -17.734367 3.796875zm118.80624 -74.796875l0 73.859375l-18.8125 0l0 -9.328125q-3.59375 4.796875 -9.390625 7.53125q-5.796875 2.734375 -12.609375 2.734375q-8.65625 0 -15.328125 -3.671875q-6.671875 -3.671875 -10.46875 -10.796875q-3.796875 -7.140625 -3.796875 -17.0l0 -43.328125l18.671875 0l0 40.65625q0 8.796875 4.390625 13.53125q4.40625 4.734375 12.0 4.734375q7.734375 0 12.125 -4.734375q4.40625 -4.734375 4.40625 -13.53125l0 -40.65625l18.8125 0zm37.05182 11.46875q3.609375 -5.875 9.40625 -9.203125q5.796875 -3.34375 13.265625 -3.34375l0 19.609375l-4.9375 0q-8.796875 0 -13.265625 4.140625q-4.46875 4.125 -4.46875 14.390625l0 36.796875l-18.65625 0l0 -73.859375l18.65625 0l0 11.46875zm66.00522 45.1875l18.671875 -56.65625l19.859375 0l-27.328125 73.859375l-22.671875 0l-27.203125 -73.859375l20.0 0l18.671875 56.65625zm117.72296 -21.328125q0 4.0 -0.53125 7.203125l-54.0 0q0.671875 8.0 5.59375 12.53125q4.9375 4.53125 12.140625 4.53125q10.40625 0 14.796875 -8.9375l20.140625 0q-3.203125 10.671875 -12.265625 17.546875q-9.0625 6.859375 -22.265625 6.859375q-10.671875 0 -19.140625 -4.734375q-8.46875 -4.734375 -13.203125 -13.390625q-4.71875 -8.671875 -4.71875 -20.015625q0 -11.453125 4.65625 -20.125q4.671875 -8.671875 13.0625 -13.328125q8.40625 -4.671875 19.34375 -4.671875q10.53125 0 18.859375 4.53125q8.328125 4.53125 12.921875 12.875q4.609375 8.328125 4.609375 19.125zm-19.328125 -5.328125q-0.140625 -7.203125 -5.203125 -11.53125q-5.0625 -4.34375 -12.390625 -4.34375q-6.9375 0 -11.671875 4.203125q-4.734375 4.203125 -5.796875 11.671875l35.0625 0zm103.59161 -30.0l-45.734375 108.796875l-19.859375 0l16.0 -36.796875l-29.59375 -72.0l20.921875 0l19.078125 51.59375l19.328125 -51.59375l19.859375 0zm42.132324 74.796875q-9.734375 0 -17.53125 -3.328125q-7.796875 -3.34375 -12.328125 -9.609375q-4.53125 -6.265625 -4.671875 -14.796875l20.0 0q0.40625 5.734375 4.0625 9.0625q3.671875 3.328125 10.078125 3.328125q6.53125 0 10.265625 -3.125q3.734375 -3.140625 3.734375 -8.203125q0 -4.125 -2.546875 -6.796875q-2.53125 -2.671875 -6.328125 -4.203125q-3.796875 -1.53125 -10.46875 -3.390625q-9.0625 -2.671875 -14.734375 -5.265625q-5.65625 -2.609375 -9.734375 -7.875q-4.0625 -5.265625 -4.0625 -14.0625q0 -8.265625 4.125 -14.390625q4.140625 -6.140625 11.609375 -9.40625q7.46875 -3.265625 17.0625 -3.265625q14.40625 0 23.40625 7.0q9.0 7.0 9.9375 19.53125l-20.53125 0q-0.28125 -4.796875 -4.078125 -7.9375q-3.796875 -3.140625 -10.0625 -3.140625q-5.46875 0 -8.734375 2.8125q-3.265625 2.796875 -3.265625 8.125q0 3.734375 2.46875 6.203125q2.46875 2.46875 6.125 4.0q3.671875 1.53125 10.34375 3.53125q9.0625 2.671875 14.796875 5.34375q5.734375 2.65625 9.859375 8.0q4.140625 5.328125 4.140625 13.984375q0 7.46875 -3.875 13.875q-3.859375 6.390625 -11.328125 10.203125q-7.46875 3.796875 -17.734375 3.796875zm67.72815 -64.140625q3.609375 -5.0625 9.9375 -8.453125q6.328125 -3.40625 14.46875 -3.40625q9.46875 0 17.125 4.671875q7.671875 4.65625 12.140625 13.265625q4.46875 8.59375 4.46875 19.921875q0 11.34375 -4.46875 20.078125q-4.46875 8.71875 -12.140625 13.53125q-7.65625 4.796875 -17.125 4.796875q-8.140625 0 -14.34375 -3.328125q-6.1875 -3.34375 -10.0625 -8.40625l0 45.734375l-18.65625 0l0 -109.0625l18.65625 0l0 10.65625zm39.078125 26.0q0 -6.65625 -2.734375 -11.515625q-2.734375 -4.875 -7.203125 -7.40625q-4.46875 -2.546875 -9.671875 -2.546875q-5.0625 0 -9.53125 2.609375q-4.46875 2.59375 -7.203125 7.53125q-2.734375 4.9375 -2.734375 11.59375q0 6.671875 2.734375 11.609375q2.734375 4.921875 7.203125 7.53125q4.46875 2.59375 9.53125 2.59375q5.203125 0 9.671875 -2.65625q4.46875 -2.671875 7.203125 -7.609375q2.734375 -4.9375 2.734375 -11.734375zm27.865234 0q0 -11.1875 4.453125 -19.859375q4.46875 -8.671875 12.140625 -13.328125q7.671875 -4.671875 17.125 -4.671875q8.265625 0 14.46875 3.34375q6.203125 3.328125 9.9375 8.390625l0 -10.53125l18.796875 0l0 73.859375l-18.796875 0l0 -10.796875q-3.59375 5.203125 -9.9375 8.609375q-6.328125 3.390625 -14.59375 3.390625q-9.328125 0 -17.0 -4.796875q-7.671875 -4.8125 -12.140625 -13.53125q-4.453125 -8.734375 -4.453125 -20.078125zm58.125 0.265625q0 -6.796875 -2.671875 -11.65625q-2.65625 -4.875 -7.203125 -7.46875q-4.53125 -2.609375 -9.71875 -2.609375q-5.203125 0 -9.609375 2.546875q-4.390625 2.53125 -7.125 7.40625q-2.734375 4.859375 -2.734375 11.515625q0 6.671875 2.734375 11.671875q2.734375 5.0 7.1875 7.671875q4.46875 2.65625 9.546875 2.65625q5.1875 0 9.71875 -2.59375q4.546875 -2.609375 7.203125 -7.46875q2.671875 -4.859375 2.671875 -11.671875zm55.72461 -25.453125q3.609375 -5.875 9.40625 -9.203125q5.796875 -3.34375 13.265625 -3.34375l0 19.609375l-4.9375 0q-8.796875 0 -13.265625 4.140625q-4.46875 4.125 -4.46875 14.390625l0 36.796875l-18.65625 0l0 -73.859375l18.65625 0l0 11.46875zm78.94275 62.390625l-25.078125 -31.46875l0 31.46875l-18.65625 0l0 -98.65625l18.65625 0l0 56.125l24.8125 -31.328125l24.265625 0l-32.546875 37.0625l32.8125 36.796875l-24.265625 0z" fill-rule="nonzero"/><path fill="#000000" fill-opacity="0.0" d="m67.879265 334.47244c-16.64682 0 -30.141731 -2.1362305E-4 -30.141731 -5.187988E-4l0 -84.471924c0 -2.746582E-4 -13.494913 -5.0354004E-4 -30.141733 -5.0354004E-4l0 0c16.64682 0 30.141733 -2.2888184E-4 30.141733 -5.0354004E-4l0 -84.471436l0 0c0 -1.373291E-4 3.1756363 -2.593994E-4 8.828308 -3.5095215E-4c5.652672 -9.1552734E-5 13.31934 -1.5258789E-4 21.313423 -1.5258789E-4z" fill-rule="evenodd"/><path fill="#000000" fill-opacity="0.0" d="m67.879265 334.47244c-16.64682 0 -30.141731 -2.1362305E-4 -30.141731 -5.187988E-4l0 -84.471924c0 -2.746582E-4 -13.494913 -5.0354004E-4 -30.141733 -5.0354004E-4l0 0c16.64682 0 30.141733 -2.2888184E-4 30.141733 -5.0354004E-4l0 -84.471436l0 0c0 -1.373291E-4 3.1756363 -2.593994E-4 8.828308 -3.5095215E-4c5.652672 -9.1552734E-5 13.31934 -1.5258789E-4 21.313423 -1.5258789E-4" fill-rule="evenodd"/><path stroke="#ffffff" stroke-width="8.0" stroke-linejoin="round" stroke-linecap="butt" d="m67.879265 334.47244c-16.64682 0 -30.141731 -2.1362305E-4 -30.141731 -5.187988E-4l0 -84.471924c0 -2.746582E-4 -13.494913 -5.0354004E-4 -30.141733 -5.0354004E-4l0 0c16.64682 0 30.141733 -2.2888184E-4 30.141733 -5.0354004E-4l0 -84.471436l0 0c0 -1.373291E-4 3.1756363 -2.593994E-4 8.828308 -3.5095215E-4c5.652672 -9.1552734E-5 13.31934 -1.5258789E-4 21.313423 -1.5258789E-4" fill-rule="evenodd"/><path fill="#000000" fill-opacity="0.0" d="m932.1207 165.52756c16.64685 0 30.141724 2.2888184E-4 30.141724 5.0354004E-4l0 84.47194c0 2.746582E-4 13.494934 5.0354004E-4 30.141724 5.0354004E-4l0 0c-16.64679 0 -30.141724 2.2888184E-4 -30.141724 5.0354004E-4l0 84.471436l0 0c0 1.2207031E-4 -3.1755981 2.4414062E-4 -8.828308 3.6621094E-4c-5.652649 9.1552734E-5 -13.319336 1.2207031E-4 -21.313416 1.2207031E-4z" fill-rule="evenodd"/><path fill="#000000" fill-opacity="0.0" d="m932.1207 165.52756c16.64685 0 30.141724 2.2888184E-4 30.141724 5.0354004E-4l0 84.47194c0 2.746582E-4 13.494934 5.0354004E-4 30.141724 5.0354004E-4l0 0c-16.64679 0 -30.141724 2.2888184E-4 -30.141724 5.0354004E-4l0 84.471436l0 0c0 1.2207031E-4 -3.1755981 2.4414062E-4 -8.828308 3.6621094E-4c-5.652649 9.1552734E-5 -13.319336 1.2207031E-4 -21.313416 1.2207031E-4" fill-rule="evenodd"/><path stroke="#ffffff" stroke-width="8.0" stroke-linejoin="round" stroke-linecap="butt" d="m932.1207 165.52756c16.64685 0 30.141724 2.2888184E-4 30.141724 5.0354004E-4l0 84.47194c0 2.746582E-4 13.494934 5.0354004E-4 30.141724 5.0354004E-4l0 0c-16.64679 0 -30.141724 2.2888184E-4 -30.141724 5.0354004E-4l0 84.471436l0 0c0 1.2207031E-4 -3.1755981 2.4414062E-4 -8.828308 3.6621094E-4c-5.652649 9.1552734E-5 -13.319336 1.2207031E-4 -21.313416 1.2207031E-4" fill-rule="evenodd"/><path fill="#000000" fill-opacity="0.0" d="m891.5853 185.61679l56.440918 0l0 38.771667l-56.440918 0z" fill-rule="evenodd"/><path fill="#ffffff" d="m911.4464 206.35075l0 -10.84375l-4.125 0l0 -1.890625l10.40625 0l0 1.890625l-4.15625 0l0 10.84375l-2.125 0zm7.703125 0l0 -12.734375l3.125 0l3.21875 10.171875l3.109375 -10.171875l3.0625 0l0 12.734375l-1.9375 0l0 -10.6875l-3.28125 10.6875l-1.921875 0l-3.421875 -10.84375l0 10.84375l-1.953125 0z" fill-rule="nonzero"/></g></svg>